<svg xmlns="http://www.w3.org/2000/svg" viewBox="0 0 480 640"><defs><linearGradient id="g" x1="0" y1="0" x2="0" y2="1"><stop stop-color="#d9c4ac"/><stop offset="1" stop-color="#6f5544"/></linearGradient></defs><rect width="480" height="640" fill="url(#g)"/><rect x="52" y="92" width="376" height="454" rx="24" fill="#f4eee4"/><g fill="#8a6a52"><rect x="86" y="138" width="308" height="18" rx="8"/><rect x="86" y="240" width="308" height="18" rx="8"/><rect x="86" y="342" width="308" height="18" rx="8"/><rect x="86" y="444" width="308" height="18" rx="8"/></g><g><rect x="94" y="160" width="36" height="70" fill="#b66c5b"/><rect x="136" y="172" width="28" height="58" fill="#668395"/><rect x="171" y="152" width="42" height="78" fill="#d3a64d"/><rect x="220" y="168" width="34" height="62" fill="#7c8e6b"/><rect x="260" y="158" width="28" height="72" fill="#9270a2"/><rect x="296" y="176" width="40" height="54" fill="#ba8065"/><rect x="342" y="150" width="44" height="80" fill="#5f788b"/></g><g opacity=".8"><rect x="96" y="262" width="46" height="70" fill="#5c7c70"/><rect x="150" y="276" width="28" height="56" fill="#ce8955"/><rect x="187" y="250" width="36" height="82" fill="#8f6b9c"/><rect x="232" y="270" width="32" height="62" fill="#c4a752"/><rect x="274" y="258" width="44" height="74" fill="#607a92"/><rect x="326" y="266" width="58" height="66" fill="#a46c59"/></g><circle cx="348" cy="520" r="52" fill="#d6b26d" opacity=".8"/><path d="M306 545 Q348 470 390 545" fill="none" stroke="#fff7e7" stroke-width="9"/><text x="80" y="596" font-family="Arial, PingFang SC, sans-serif" font-size="26" font-weight="700" fill="#fff">BOOKS · CULTURE</text></svg>